<?xml version="1.0" encoding="UTF-8" standalone="no"?>
<!-- Created with Inkscape (http://www.inkscape.org/) -->

<svg
   xmlns:dc="http://purl.org/dc/elements/1.1/"
   xmlns:cc="http://creativecommons.org/ns#"
   xmlns:rdf="http://www.w3.org/1999/02/22-rdf-syntax-ns#"
   xmlns:svg="http://www.w3.org/2000/svg"
   xmlns="http://www.w3.org/2000/svg"
   xmlns:sodipodi="http://sodipodi.sourceforge.net/DTD/sodipodi-0.dtd"
   xmlns:inkscape="http://www.inkscape.org/namespaces/inkscape"
   width="1200"
   height="1200"
   viewBox="0 0 317.49999 317.50001"
   version="1.1"
   id="svg8"
   inkscape:version="0.92.4 (5da689c313, 2019-01-14)"
   sodipodi:docname="MetronetLogoOpenGraph.svg">
  <defs
     id="defs2">
    <style
       id="style3742">.cls-1,.cls-3{fill:#fff;}.cls-2{fill:none;}.cls-2,.cls-3{stroke:#77bc1f;stroke-linecap:round;stroke-width:3.48px;}</style>
  </defs>
  <sodipodi:namedview
     id="base"
     pagecolor="#ffffff"
     bordercolor="#666666"
     borderopacity="1.0"
     inkscape:pageopacity="0.0"
     inkscape:pageshadow="2"
     inkscape:zoom="0.7"
     inkscape:cx="1102.8074"
     inkscape:cy="492.6445"
     inkscape:document-units="mm"
     inkscape:current-layer="layer1"
     showgrid="false"
     units="px"
     inkscape:window-width="2560"
     inkscape:window-height="1377"
     inkscape:window-x="2552"
     inkscape:window-y="-8"
     inkscape:window-maximized="1" />
  <metadata
     id="metadata5">
    <rdf:RDF>
      <cc:Work
         rdf:about="">
        <dc:format>image/svg+xml</dc:format>
        <dc:type
           rdf:resource="http://purl.org/dc/dcmitype/StillImage" />
        <dc:title />
      </cc:Work>
    </rdf:RDF>
  </metadata>
  <g
     inkscape:label="Layer 1"
     inkscape:groupmode="layer"
     id="layer1"
     transform="translate(0,20.500017)">
    <rect
       id="rect3783"
       width="317.5"
       height="317.5"
       x="0"
       y="-20.500015"
       style="fill:#246ba1;fill-opacity:1;stroke:none;stroke-width:0.30224529" />
    <g
       id="g3781"
       transform="matrix(1.1666859,0,0,1.1666721,37.899,122.79191)">
      <path
         id="path3748"
         d="M 3.45,13.75 V 26.22 H 0 V 5.37 L 10.43,15.8 20.88,5.37 V 26.22 H 17.36 V 13.75 l -6.94,7 z"
         class="cls-1"
         inkscape:connector-curvature="0"
         style="fill:#ffffff" />
      <path
         id="path3750"
         d="M 45.09,5.37 V 8.86 H 34.66 v 5.23 h 10.43 v 3.46 H 34.66 v 5.2 h 10.43 v 3.49 H 31.21 V 5.37 Z"
         class="cls-1"
         inkscape:connector-curvature="0"
         style="fill:#ffffff" />
      <path
         id="path3752"
         d="M 54,5.37 H 71.4 V 8.86 H 64.48 V 26.22 H 61 V 8.86 h -7 z"
         class="cls-1"
         inkscape:connector-curvature="0"
         style="fill:#ffffff" />
      <path
         id="path3754"
         d="m 93.73,26.22 -4,-6.94 h -5.92 v 6.94 H 80.36 V 5.37 h 10.42 a 6.68,6.68 0 0 1 4.9,2 6.67,6.67 0 0 1 2,4.9 6.77,6.77 0 0 1 -1.23,3.94 6.73,6.73 0 0 1 -3.06,2.49 l 4.29,7.48 h -4 z M 90.78,8.86 h -7 v 6.91 h 7 a 3.48,3.48 0 0 0 3.45,-3.49 3.48,3.48 0 0 0 -3.45,-3.42 z"
         class="cls-1"
         inkscape:connector-curvature="0"
         style="fill:#ffffff" />
      <path
         id="path3756"
         d="m 139.26,5.34 13.88,12.5 V 5.34 h 3.48 v 20.88 l -13.91,-12.5 v 12.47 h -3.45 z"
         class="cls-1"
         inkscape:connector-curvature="0"
         style="fill:#ffffff" />
      <path
         id="path3758"
         d="m 180.83,5.37 v 3.49 h -10.42 v 5.23 h 10.42 v 3.46 h -10.42 v 5.2 h 10.42 v 3.49 H 167 V 5.37 h 13.88 z"
         class="cls-1"
         inkscape:connector-curvature="0"
         style="fill:#ffffff" />
      <path
         id="path3760"
         d="m 189.77,5.37 h 17.4 v 3.49 h -6.94 v 17.36 h -3.48 V 8.86 h -7 V 5.37 Z"
         class="cls-1"
         inkscape:connector-curvature="0"
         style="fill:#ffffff" />
      <path
         id="path3762"
         d="m 125.4,7 a 10.27,10.27 0 1 1 -14,0"
         class="cls-2"
         inkscape:connector-curvature="0"
         style="fill:none;stroke:#77bc1f;stroke-width:3.48000002px;stroke-linecap:round" />
      <line
         id="line3764"
         y2="14.88"
         x2="118.34"
         y1="1.74"
         x1="118.34"
         class="cls-3"
         style="fill:#ffffff;stroke:#77bc1f;stroke-width:3.48000002px;stroke-linecap:round" />
    </g>
  </g>
</svg>
